<?xml version="1.0" encoding="UTF-8"?>
<svg xmlns="http://www.w3.org/2000/svg" viewBox="205 215 405 130" preserveAspectRatio="xMidYMid meet">
<path fill="#00874b" d="M 210.679688 221.992188 L 248.714844 221.992188 L 248.714844 339.363281 L 210.679688 339.363281 Z M 210.679688 221.992188 "/>
<path fill="#00874b" d="M 299.988281 293.226562 L 299.988281 339.363281 L 262.117188 339.363281 L 262.117188 221.992188 L 360.625 221.992188 L 360.625 254.574219 L 299.988281 254.574219 L 299.988281 265.484375 L 360.625 265.484375 L 360.625 293.226562 Z M 299.988281 293.226562 "/>
<path fill="#00874b" d="M 542.660156 306.710938 C 528.144531 306.710938 516.378906 294.941406 516.378906 280.421875 C 516.378906 265.910156 528.144531 254.140625 542.660156 254.140625 C 557.179688 254.140625 568.949219 265.910156 568.949219 280.421875 C 568.949219 294.941406 557.179688 306.710938 542.660156 306.710938 M 540.367188 220.636719 C 507.347656 220.636719 482.875 247.40625 482.875 280.425781 C 482.875 313.445312 509.640625 340.214844 542.664062 340.214844 C 575.683594 340.214844 602.449219 313.445312 602.449219 280.425781 C 602.449219 247.40625 573.390625 220.636719 540.367188 220.636719 "/>
<path fill="#00874b" d="M 410.1875 306.320312 L 410.1875 254.574219 L 477.105469 254.574219 L 477.105469 221.996094 L 399.902344 221.996094 C 384.316406 221.996094 372.15625 234.777344 372.15625 249.742188 L 372.15625 311.460938 C 372.15625 327.519531 385.25 339.367188 400.214844 339.367188 L 477.105469 339.367188 L 477.105469 306.320312 Z M 410.1875 306.320312 "/>
</svg>
